# xmcd
#
# Track frame offsets: 
#        150
#        16882
#        33315
#        48957
#        65047
#        80182
#        94462
#        111082
#        125980
#        139450
#        153567
#        169650
#        183500
#        198507
#        217357
#        232742
#        250120
#        265990
#
# Disc length: 3731 seconds
#
# Revision: 0
# Processed by: cddbd v1.5.2PL0 Copyright (c) Steve Scherf et al.
# Submitted via: ExactAudioCopy v0.99pb5
#
DISCID=130e9112
DTITLE=Matko Jelavic - Pismo moja uzorita
DYEAR=2000
DGENRE=Pop
TTITLE0=Pismo moja uzorita
TTITLE1=Majko stara
TTITLE2=U kuci kraj mora
TTITLE3=Nema meni do Dalmacije
TTITLE4=Sretno ti bilo andjele
TTITLE5=Ciribiribela kokola
TTITLE6=Nocas cu rujno vino piti
TTITLE7=Na Kvarneru
TTITLE8=Moja ljubavi
TTITLE9=Rodija se sin
TTITLE10=Ljuta
TTITLE11=Ljube ljubavi
TTITLE12=Jubomora
TTITLE13=Ti samo ti
TTITLE14=Pianino
TTITLE15=Vitar sumi
TTITLE16=Samo zbog tebe
TTITLE17=Divna splitska noc
EXTD=
EXTT0=
EXTT1=
EXTT2=
EXTT3=
EXTT4=
EXTT5=
EXTT6=
EXTT7=
EXTT8=
EXTT9=
EXTT10=
EXTT11=
EXTT12=
EXTT13=
EXTT14=
EXTT15=
EXTT16=
EXTT17=
PLAYORDER=
